# xmcd
#
# Track frame offsets: 
#        150
#        12702
#        24287
#        36220
#        50170
#        63235
#        75065
#        86070
#        99175
#        109370
#        119980
#        132765
#        144352
#        155380
#        167212
#        178390
#        188737
#        201017
#        212327
#        221940
#        235055
#        249782
#        261210
#        273020
#        284182
#        296685
#        309310
#        322992
#
# Disc length: 4432 seconds
#
# Revision: 0
# Processed by: cddbd v1.5.1PL0 Copyright (c) Steve Scherf et al.
# Submitted via: ExactAudioCopy v0.95a4
#
DISCID=98114e1c
DTITLE=Rex Griffin - The Last Letter - Disc 2
DYEAR=1900
DGENRE=Country
TTITLE0=Just Partners (1939)
TTITLE1=Lovesick Blues (1939)
TTITLE2=I Love You As Before (1939)
TTITLE3=I'll Never Tell You That I Love You (1940)
TTITLE4=Nobody Wants To Be My Baby (1944)
TTITLE5=Maybe You'll Think About Me (1940)
TTITLE6=You Got To Go To Work (1940)
TTITLE7=An Old Rose And A Curl (1939)
TTITLE8=Everybody's trying To Be My Baby (1944)
TTITLE9=I Don't Love Anybody But You (1944)
TTITLE10=I'm Just Passin' Through (1944)
TTITLE11=Let Me Call You Sweetheart Again (1944)
TTITLE12=I'm Ready To Reform (1944)
TTITLE13=Just For Old Times Sake (1944)
TTITLE14=The Walkin' Blues (1944)
TTITLE15=An Old Faded Photograph (1944)
TTITLE16=The Trail To Home Sweet Home (1944)
TTITLE17=Nobody Wants To Be My Baby (1944)
TTITLE18=Mean Woman Blues (1944)
TTITLE19=Why Should I Care If You're Blue (1944)
TTITLE20=I Love You Nellie (1944)
TTITLE21=Yum Yum Blues (1944)
TTITLE22=Toodle-Oo Sweet Mama (1944)
TTITLE23=Too Good To Be True (1944)
TTITLE24=That Old Sweetheart Of Mine (1944)
TTITLE25=Blue Eyes Lullaby (1944)
TTITLE26=The Yodelling Cowboy's Last Song (1944)
TTITLE27=Love Call Yodel (1944)
EXTD=
EXTT0=
EXTT1=
EXTT2=
EXTT3=
EXTT4=
EXTT5=
EXTT6=
EXTT7=
EXTT8=
EXTT9=
EXTT10=
EXTT11=
EXTT12=
EXTT13=
EXTT14=
EXTT15=
EXTT16=
EXTT17=
EXTT18=
EXTT19=
EXTT20=
EXTT21=
EXTT22=
EXTT23=
EXTT24=
EXTT25=
EXTT26=
EXTT27=
PLAYORDER=
